<svg width="505" height="252" viewBox="0 0 505 252" fill="none" xmlns="http://www.w3.org/2000/svg">
<path d="M76.2105 247.952C77.6685 248.445 79.1398 248.89 80.6179 249.301H74.2261C73.038 248.883 71.859 248.434 70.6892 247.952C70.4328 247.851 70.1694 247.743 69.913 247.635C60.2677 243.594 51.3854 237.523 44.6693 229.442C41.3783 225.531 38.6936 221.149 36.7048 216.442C34.542 211.125 33.1685 205.521 32.6281 199.807C31.4129 188.082 32.6482 176.034 34.97 164.519C37.3651 152.583 41.2329 140.991 46.485 130.007C47.1194 128.691 47.7719 127.383 48.4423 126.081C48.4896 125.975 48.5594 125.881 48.6469 125.806C48.7343 125.73 48.8373 125.674 48.9485 125.642C49.0638 125.621 49.1822 125.622 49.2969 125.646C49.4117 125.671 49.5204 125.717 49.6169 125.784C49.849 125.917 50.0212 126.134 50.0978 126.39C50.1744 126.646 50.1496 126.922 50.0286 127.16C44.6154 137.709 40.5126 148.88 37.8116 160.424C35.1658 171.69 33.6606 183.475 34.1804 195.051C34.6661 205.871 37.4945 216.51 43.9133 225.36C49.8914 233.402 57.7561 239.852 66.815 244.141C69.8596 245.617 72.9982 246.89 76.2105 247.952Z" fill="white"/>
<path d="M101.974 249.301H99.4968C99.1459 248.856 98.8084 248.404 98.4775 247.952C93.6046 241.333 90.2829 233.705 88.758 225.63C86.6806 214.321 88.2994 202.644 93.375 192.325C94.7925 189.432 96.4615 186.669 98.3628 184.068C99.0377 184.21 99.7061 184.372 100.368 184.574C95.36 191.203 91.9925 198.921 90.54 207.099C89.3305 214.253 89.6253 221.58 91.4056 228.614C93.1859 235.648 96.4127 242.234 100.88 247.952C101.238 248.411 101.603 248.863 101.974 249.301Z" fill="white"/>
<path d="M228.605 125.648C228.869 124.622 228.904 123.55 228.708 122.509C228.513 121.468 228.091 120.482 227.473 119.621C226.855 118.761 226.056 118.046 225.131 117.527C224.207 117.008 223.18 116.699 222.123 116.62L180.872 65.0742L170.665 74.5824L214.242 123.82C214.227 125.604 214.867 127.331 216.041 128.675C217.215 130.018 218.841 130.885 220.611 131.11C222.382 131.335 224.173 130.904 225.647 129.897C227.12 128.89 228.173 127.379 228.605 125.648Z" fill="#FFB8B8"/>
<path d="M188.786 73.2627L175.749 83.241C175.378 83.5249 174.95 83.7256 174.495 83.8293C174.039 83.9331 173.567 83.9375 173.109 83.8423C172.652 83.7471 172.22 83.5544 171.844 83.2775C171.468 83.0006 171.156 82.6459 170.929 82.2376L162.988 67.9301C161.545 66.0251 160.918 63.6262 161.242 61.2592C161.567 58.8923 162.817 56.7506 164.719 55.3036C166.621 53.8566 169.019 53.2224 171.389 53.5402C173.758 53.8579 175.904 55.1015 177.357 56.9985L189.073 68.3507C189.408 68.6758 189.669 69.0694 189.839 69.5045C190.008 69.9397 190.082 70.4062 190.055 70.8724C190.027 71.3385 189.9 71.7933 189.681 72.2058C189.462 72.6183 189.157 72.9788 188.786 73.2627Z" fill="#56529E"/>
<path d="M166.892 42.1451C176.048 42.1451 183.47 34.7271 183.47 25.5765C183.47 16.4258 176.048 9.00781 166.892 9.00781C157.736 9.00781 150.314 16.4258 150.314 25.5765C150.314 34.7271 157.736 42.1451 166.892 42.1451Z" fill="#FFB8B8"/>
<path d="M202.279 240.496H210.554L209.766 225.017L197.553 225.017L202.279 240.496Z" fill="#FFB8B8"/>
<path d="M200.169 237.796L216.465 237.795H216.466C217.829 237.795 219.18 238.063 220.44 238.585C221.7 239.107 222.845 239.871 223.809 240.835C224.774 241.799 225.539 242.943 226.06 244.202C226.582 245.462 226.851 246.811 226.851 248.174V248.512L200.169 248.513L200.169 237.796Z" fill="#2F2E41"/>
<path d="M114.052 228.786L121.092 233.132L128.562 219.549L120.043 214.223L114.052 228.786Z" fill="#FFB8B8"/>
<path d="M113.677 225.381L127.541 233.94C128.701 234.657 129.71 235.595 130.507 236.7C131.305 237.806 131.877 239.058 132.191 240.384C132.504 241.711 132.553 243.086 132.335 244.432C132.117 245.777 131.636 247.066 130.919 248.226L130.742 248.513L108.042 234.499L113.677 225.381Z" fill="#2F2E41"/>
<path d="M201.681 235.958C201.066 235.957 200.466 235.77 199.959 235.42C199.453 235.071 199.066 234.576 198.848 234.001L168.916 162.476C168.851 162.302 168.74 162.148 168.594 162.032C168.448 161.917 168.273 161.844 168.088 161.821C167.903 161.799 167.715 161.828 167.546 161.905C167.376 161.982 167.231 162.105 167.127 162.259L126.006 227C125.603 227.603 124.998 228.042 124.3 228.236C123.601 228.43 122.856 228.368 122.2 228.059L116.573 225.434C115.853 225.095 115.294 224.487 115.016 223.741C114.738 222.994 114.763 222.169 115.086 221.441L148.776 146.387C148.04 144.598 140.865 126.233 151.889 117.159L151.966 117.111L181.86 103.784L182.614 126.703L212.41 230.027C212.522 230.416 212.555 230.823 212.508 231.225C212.46 231.627 212.333 232.015 212.133 232.367C211.933 232.719 211.665 233.027 211.344 233.274C211.023 233.521 210.656 233.701 210.264 233.804L202.46 235.856C202.206 235.924 201.944 235.958 201.681 235.958Z" fill="#CFCDFF"/>
<path d="M182.312 70.2585C181.174 65.6926 179.561 61.0903 177.398 58.9656C176.603 58.1908 175.856 57.3684 175.161 56.503C173.706 54.6719 171.877 53.1733 169.794 52.108C170.556 51.6842 171.003 51.1788 171.003 50.6349C171.003 49.1446 167.679 47.9365 163.578 47.9365C159.478 47.9365 156.154 49.1446 156.154 50.6349C156.164 50.808 156.208 50.9774 156.284 51.1334C156.359 51.2894 156.465 51.4289 156.595 51.5439C153.917 52.6348 151.59 54.4392 149.868 56.7605C148.146 59.0818 147.094 61.831 146.827 64.7086C145.868 74.9731 145.588 88.0936 148.949 96.3928C151.767 103.256 151.992 110.909 149.579 117.925C149.416 118.414 149.396 118.939 149.522 119.438C149.648 119.938 149.914 120.391 150.29 120.744C150.666 121.096 151.134 121.334 151.641 121.429C152.148 121.523 152.671 121.471 153.149 121.277L182.811 109.331C183.311 109.13 183.739 108.784 184.04 108.338C184.341 107.892 184.502 107.366 184.502 106.828V88.6833C184.526 82.4755 183.791 76.288 182.312 70.2585Z" fill="#56529E"/>
<path d="M125.558 144.99C126.59 144.75 127.558 144.287 128.392 143.634C129.226 142.98 129.907 142.151 130.386 141.206C130.865 140.261 131.131 139.223 131.165 138.164C131.199 137.105 131 136.051 130.583 135.077L153.791 73.9081L142.022 70.8711L120.555 131.41C118.965 132.22 117.727 133.584 117.075 135.245C116.424 136.905 116.405 138.747 117.022 140.421C117.638 142.095 118.848 143.485 120.421 144.327C121.994 145.169 123.822 145.405 125.558 144.99Z" fill="#FFB8B8"/>
<path d="M153.694 85.5146L138.823 78.5571C138.399 78.3592 138.024 78.0724 137.722 77.7163C137.419 77.3602 137.198 76.9432 137.071 76.4937C136.945 76.0442 136.917 75.5727 136.989 75.1114C137.061 74.6501 137.232 74.2097 137.49 73.8204L146.528 60.1784C147.555 58.0219 149.395 56.36 151.645 55.5569C153.895 54.7538 156.372 54.8748 158.533 55.8936C160.695 56.9123 162.364 58.7457 163.175 60.992C163.986 63.2383 163.873 65.7144 162.861 67.8777L158.187 83.5032C158.053 83.9505 157.825 84.3638 157.516 84.7148C157.208 85.0657 156.828 85.3462 156.402 85.5371C155.975 85.728 155.513 85.8248 155.046 85.8209C154.578 85.817 154.118 85.7125 153.694 85.5146Z" fill="#56529E"/>
<path d="M182.119 21.4984C182.867 21.5869 183.625 21.4501 184.294 21.1055C185.517 20.3057 185.397 18.4877 184.983 17.0868C183.952 13.7287 182.091 10.6843 179.572 8.2345C177.053 5.78473 173.958 4.00853 170.571 3.06981C168.211 2.44292 165.224 2.46715 163.874 4.50091C160.481 2.24194 156.391 1.27297 152.344 1.76971C148.298 2.26644 144.564 4.19601 141.818 7.20847C139.05 10.2469 137.463 14.2078 136.64 18.2345C135.224 25.1708 129.157 39.479 132.518 45.7109C134.754 49.8579 145.045 46.6268 149.399 48.433C153.752 50.2393 159.043 50.0367 162.91 47.3429C166.777 44.6492 168.808 39.3302 167.15 34.9202C166.509 33.2148 165.397 31.7337 164.521 30.1365C163.644 28.5393 162.988 26.693 163.379 24.9137C163.988 22.1428 177.073 21.3945 182.119 21.4984Z" fill="#2F2E41"/>
<path d="M322 248.5C322 248.566 321.985 248.631 321.955 248.692C321.926 248.752 321.882 248.808 321.827 248.854C321.772 248.901 321.706 248.937 321.634 248.962C321.562 248.987 321.485 249 321.407 249H39.5933C39.4359 249 39.285 248.947 39.1738 248.854C39.0625 248.76 39 248.633 39 248.5C39 248.367 39.0625 248.24 39.1738 248.146C39.285 248.053 39.4359 248 39.5933 248H321.407C321.485 248 321.562 248.013 321.634 248.038C321.706 248.063 321.772 248.099 321.827 248.146C321.882 248.192 321.926 248.248 321.955 248.308C321.985 248.369 322 248.434 322 248.5Z" fill="#9E9E9E"/>
<path d="M370.456 252C383.503 252 394.079 250.188 394.079 247.953C394.079 245.717 383.503 243.905 370.456 243.905C357.409 243.905 346.832 245.717 346.832 247.953C346.832 250.188 357.409 252 370.456 252Z" fill="#5483B7"/>
<path d="M504.325 249.598H413.88C413.701 249.598 413.529 249.527 413.402 249.401C413.276 249.274 413.205 249.103 413.205 248.924C413.205 248.745 413.276 248.573 413.402 248.447C413.529 248.32 413.701 248.249 413.88 248.249H504.325C504.504 248.249 504.676 248.32 504.802 248.447C504.929 248.573 505 248.745 505 248.924C505 249.103 504.929 249.274 504.802 249.401C504.676 249.527 504.504 249.598 504.325 249.598Z" fill="#9E9E9E"/>
<path d="M352.896 72.3606C352.897 65.0113 355.419 57.8844 360.04 52.168C364.662 46.4516 371.104 42.4911 378.294 40.9467C373.606 39.9413 368.753 39.9965 364.09 41.1082C359.426 42.2199 355.071 44.36 351.342 47.3717C347.613 50.3835 344.606 54.1906 342.54 58.5144C340.473 62.8382 339.401 67.569 339.401 72.3606C339.401 77.1521 340.473 81.883 342.54 86.2068C344.606 90.5305 347.613 94.3377 351.342 97.3494C355.071 100.361 359.426 102.501 364.09 103.613C368.753 104.725 373.606 104.78 378.294 103.774C371.104 102.23 364.662 98.2695 360.04 92.5531C355.419 86.8367 352.897 79.7099 352.896 72.3606Z" fill="#5B9CC2"/>
<path d="M317.91 72.36C317.911 54.8314 324.326 37.9083 335.945 24.7784C347.564 11.6486 363.587 3.21838 380.993 1.07586C370.893 -0.1617 360.644 0.758168 350.926 3.77462C341.208 6.79106 332.241 11.8353 324.619 18.5738C316.997 25.3123 310.893 33.5914 306.711 42.8635C302.529 52.1357 300.365 62.1895 300.361 72.36C300.361 104.576 347.764 195.422 365.568 228.406C366.215 229.607 367.175 230.609 368.346 231.308C369.516 232.008 370.855 232.377 372.219 232.377C373.583 232.377 374.921 232.008 376.092 231.308C377.263 230.609 378.223 229.607 378.869 228.406C379.536 227.172 380.248 225.847 380.993 224.456C361.827 188.695 317.91 103.37 317.91 72.36Z" fill="#5B9CC2"/>
<path d="M372.28 233.184C370.792 233.196 369.329 232.799 368.052 232.036C366.774 231.273 365.731 230.174 365.036 228.859C345.405 192.491 299.748 104.452 299.748 72.4928C299.748 53.2665 307.389 34.8277 320.992 21.2326C334.595 7.63761 353.044 0 372.281 0C391.518 0 409.967 7.63761 423.57 21.2326C437.172 34.8277 444.814 53.2665 444.814 72.4928C444.814 104.455 399.156 192.492 379.525 228.859C378.83 230.174 377.787 231.273 376.509 232.036C375.231 232.799 373.768 233.196 372.28 233.184ZM372.281 1.34918C353.408 1.37046 335.315 8.87276 321.97 22.2102C308.625 35.5476 301.119 53.6309 301.097 72.4928C301.097 104.145 346.643 191.94 366.224 228.219C366.813 229.312 367.687 230.225 368.753 230.862C369.819 231.498 371.038 231.835 372.28 231.835C373.523 231.835 374.742 231.498 375.808 230.862C376.874 230.225 377.748 229.312 378.337 228.219C397.919 191.942 443.464 104.148 443.464 72.4928C443.443 53.6309 435.936 35.5476 422.591 22.2102C409.247 8.87276 391.153 1.37046 372.281 1.34918Z" fill="#C8C8CC"/>
<path d="M372.281 105.296C365.789 105.296 359.443 103.372 354.046 99.7679C348.648 96.1634 344.441 91.0401 341.957 85.046C339.473 79.0519 338.822 72.4562 340.089 66.0928C341.355 59.7295 344.481 53.8843 349.072 49.2966C353.662 44.7089 359.51 41.5846 365.877 40.3188C372.244 39.0531 378.843 39.7027 384.841 42.1855C390.838 44.6684 395.964 48.873 399.571 54.2675C403.177 59.6621 405.102 66.0044 405.102 72.4924C405.093 81.1894 401.631 89.5274 395.478 95.6771C389.325 101.827 380.983 105.286 372.281 105.296ZM372.281 41.0377C366.056 41.0376 359.971 42.8823 354.796 46.3385C349.62 49.7947 345.586 54.7072 343.204 60.4548C340.822 66.2023 340.199 72.5268 341.413 78.6284C342.627 84.7301 345.625 90.3348 350.026 94.7338C354.427 99.1329 360.035 102.129 366.14 103.342C372.245 104.556 378.573 103.933 384.324 101.553C390.075 99.172 394.99 95.1404 398.448 89.9677C401.907 84.795 403.752 78.7136 403.752 72.4924C403.743 64.1531 400.424 56.158 394.524 50.2612C388.624 44.3643 380.625 41.0472 372.281 41.0377Z" fill="#C8C8CC"/>
</svg>
