<svg width="27" height="25" viewBox="0 0 27 25" fill="none" xmlns="http://www.w3.org/2000/svg">
<path d="M26.1905 12.4881L23.2857 9.16667L23.6905 4.77381L19.3929 3.79762L17.1429 0L13.0952 1.7381L9.04762 0L6.79762 3.79762L2.5 4.7619L2.90476 9.16667L0 12.4881L2.90476 15.8095L2.5 20.2143L6.79762 21.1905L9.04762 25L13.0952 23.25L17.1429 24.9881L19.3929 21.1905L23.6905 20.2143L23.2857 15.8214L26.1905 12.4881ZM21.4881 14.25L20.8214 15.0238L20.9167 16.0357L21.131 18.3571L18.869 18.869L17.869 19.0952L17.3452 19.9762L16.1667 21.9762L14.0476 21.0595L13.0952 20.6548L12.1548 21.0595L10.0357 21.9762L8.85714 19.9881L8.33333 19.1071L7.33333 18.881L5.07143 18.369L5.28571 16.0357L5.38095 15.0238L4.71429 14.25L3.17857 12.5L4.71429 10.7381L5.38095 9.96429L5.27381 8.94048L5.05952 6.63095L7.32143 6.11905L8.32143 5.89286L8.84524 5.0119L10.0238 3.0119L12.1429 3.92857L13.0952 4.33333L14.0357 3.92857L16.1548 3.0119L17.3333 5.0119L17.8571 5.89286L18.8571 6.11905L21.119 6.63095L20.9048 8.95238L20.8095 9.96429L21.4762 10.7381L23.0119 12.4881L21.4881 14.25Z" fill="#001725"/>
<path d="M10.8215 14.5835L8.05957 11.8097L6.29767 13.5835L10.8215 18.1192L19.5596 9.35731L17.7977 7.5835L10.8215 14.5835Z" fill="#001725"/>
</svg>
