<svg width="15" height="15" viewBox="0 0 15 15" fill="none" xmlns="http://www.w3.org/2000/svg">
<path d="M15 7.15227L13.3364 5.25L13.5682 2.73409L11.1068 2.175L9.81818 0L7.5 0.995455L5.18182 0L3.89318 2.175L1.43182 2.72727L1.66364 5.25L0 7.15227L1.66364 9.05455L1.43182 11.5773L3.89318 12.1364L5.18182 14.3182L7.5 13.3159L9.81818 14.3114L11.1068 12.1364L13.5682 11.5773L13.3364 9.06136L15 7.15227ZM12.3068 8.16136L11.925 8.60455L11.9795 9.18409L12.1023 10.5136L10.8068 10.8068L10.2341 10.9364L9.93409 11.4409L9.25909 12.5864L8.04545 12.0614L7.5 11.8295L6.96136 12.0614L5.74773 12.5864L5.07273 11.4477L4.77273 10.9432L4.2 10.8136L2.90455 10.5205L3.02727 9.18409L3.08182 8.60455L2.7 8.16136L1.82045 7.15909L2.7 6.15L3.08182 5.70682L3.02045 5.12046L2.89773 3.79773L4.19318 3.50455L4.76591 3.375L5.06591 2.87045L5.74091 1.725L6.95455 2.25L7.5 2.48182L8.03864 2.25L9.25227 1.725L9.92727 2.87045L10.2273 3.375L10.8 3.50455L12.0955 3.79773L11.9727 5.12727L11.9182 5.70682L12.3 6.15L13.1795 7.15227L12.3068 8.16136Z" fill="white"/>
<path d="M6.19784 8.35235L4.61602 6.76372L3.60693 7.77963L6.19784 10.3774L11.2024 5.35917L10.1933 4.34326L6.19784 8.35235Z" fill="white"/>
</svg>
