<svg width="474" height="237" viewBox="0 0 474 237" fill="none" xmlns="http://www.w3.org/2000/svg">
<path d="M109.05 202.96C73.6 186.36 51.29 153.56 42.59 105.03C38.31 81.15 38.16 57.73 39.16 39.9H39.3H139.95H140.84L64.55 129.85C66.32 134.08 68.15 138.01 70.02 141.69C70.09 141.84 70.17 141.98 70.24 142.13C75.13 151.68 80.31 159.46 85.6 165.82L87.85 163.16L147.77 92.51L182.91 51.0801L186.69 46.62V0L179.17 0.150024H0V34.3401L0.189995 73.9301L0.219994 80.4501V80.64C2.60999 115.25 10.85 155.35 33.42 188.55C44.15 204.33 57.2 217.37 72.47 227.6C73.66 228.31 74.86 228.99 76.08 229.65C76.64 229.95 77.21 230.22 77.77 230.51C81.76 232.55 85.9 234.35 90.25 235.81L93.4 236.87C109.17 229.29 120.19 217.79 126.99 208.84C119.61 206.77 114.19 204.87 114.19 204.87C112.43 204.29 110.73 203.64 109.05 202.97V202.96ZM17.85 45.3101C18.59 44.8901 19.34 44.49 20.09 44.13C19.34 44.49 18.6 44.8801 17.85 45.3101ZM34.2 40.16C32.63 40.34 30.77 40.6301 28.75 41.1001C30.77 40.6301 32.63 40.33 34.2 40.16C34.72 40.1 35.22 40.05 35.68 40.02C35.22 40.06 34.73 40.1 34.2 40.16ZM37.48 39.91C37.82 39.9 38.12 39.89 38.37 39.89C38.12 39.89 37.82 39.89 37.48 39.91Z" fill="white"/>
<path d="M186.84 73.87L184.76 76.3301L144.83 123.6L99.6904 176.82C103 179.7 106.31 182.13 109.58 184.21C109.64 184.25 109.71 184.29 109.77 184.34C111.15 185.21 112.51 186.03 113.87 186.79C118.86 189.58 123.7 191.63 128.22 193.25C130.71 194.14 133.11 194.89 135.4 195.51L178.85 144.28C188.71 125.36 186.84 73.8601 186.84 73.8601V73.87Z" fill="white"/>
<path d="M299.31 60.0498H318.57V140.06H299.31V60.0498Z" fill="white"/>
<path d="M366.12 140.06C360.03 140.06 354.04 139.01 348.14 136.91C342.27 134.77 336.91 131.52 332.04 127.17L342.94 114.11C347.11 117.5 351 120.03 354.61 121.69C358.23 123.35 362.19 124.18 366.51 124.18C369.79 124.18 372.32 123.59 374.09 122.41C375.9 121.19 376.8 119.44 376.8 117.15V116.93C376.8 115.71 376.62 114.7 376.25 113.89C375.81 113.08 375.09 112.32 374.09 111.62C372.98 110.96 371.43 110.27 369.44 109.57C367.74 108.91 365.51 108.22 362.75 107.52C362.38 107.41 362.01 107.3 361.64 107.19C357.66 106.27 354.02 105.18 350.74 103.93C347.42 102.75 344.62 101.24 342.33 99.3899C340.04 97.5799 338.27 95.3899 337.02 92.8099C335.8 90.1499 335.19 86.9099 335.19 83.0699V82.85C335.19 79.35 335.84 76.14 337.13 73.22C338.49 70.27 340.43 67.7399 342.94 65.6399C345.45 63.4999 348.45 61.82 351.96 60.6C355.43 59.49 359.24 58.9399 363.41 58.9399C369.31 58.9399 374.72 59.8099 379.62 61.5399C384.6 63.3099 389.17 65.88 393.34 69.23L383.82 82.95C379.69 80.18 376.02 78.1399 372.81 76.8099C369.56 75.4499 366.36 74.7599 363.18 74.7599C360 74.7599 357.85 75.37 356.37 76.59C354.78 77.77 353.99 79.3199 353.99 81.2399V81.46C353.99 82.82 354.27 83.9299 354.82 84.7799C355.26 85.6699 356.06 86.4599 357.2 87.1599C358.34 87.8199 360 88.51 362.18 89.21C363.62 89.65 365.32 90.1299 367.27 90.6499C368.23 90.9099 369.24 91.19 370.31 91.48C374.37 92.55 377.96 93.75 381.1 95.08C384.27 96.44 386.95 98.03 389.12 99.84C391.37 101.76 393.03 103.95 394.1 106.42C395.17 108.89 395.7 111.84 395.7 115.27V115.49C395.7 119.33 394.98 122.76 393.54 125.78C392.18 128.8 390.18 131.37 387.56 133.47C384.9 135.61 381.77 137.23 378.15 138.34C374.42 139.48 370.4 140.06 366.09 140.06H366.12Z" fill="white"/>
<path d="M409.2 60.1599H470.84V76.3699H409.2V60.1599ZM426.52 123.85H470.84V140.06H409.2V92.0299H447.71V108.24H426.52V123.84V123.85Z" fill="white"/>
<path d="M266.37 111.5C277.62 107.92 283.25 99.5998 283.25 86.5498C283.25 79.0998 280.98 73.0698 276.44 68.4598C270.83 62.8498 262.83 60.0498 252.43 60.0498H215.25V76.4897H234.51L250.94 76.4799C259.5 76.5899 263.78 80.3298 263.78 87.7098C263.37 94.9798 259.21 98.6099 251.28 98.6099H235.57H234.51H215.25V140.05H234.51V114.83H246.6L263.78 140.05H285.86L266.38 111.5H266.37Z" fill="white"/>
<path d="M214.428 170.68V155.556H220.562C223.65 155.556 225.194 156.906 225.194 159.607C225.194 162.547 223.083 164.341 218.859 164.99L218.457 163.34C221.56 162.882 223.111 161.666 223.111 159.691C223.111 158.013 222.201 157.174 220.382 157.174H216.384V170.68H214.428ZM237.685 155.556V157.142H229.753V162.219H237.315V163.805H229.753V169.094H237.843V170.68H227.796V155.556H237.685ZM240.805 170.68V155.556H247.256C250.133 155.556 251.571 156.765 251.571 159.184C251.571 161.151 250.165 162.607 247.351 163.552L252.544 170.68H249.964L245.152 163.879V162.6C248.042 162.141 249.488 161.031 249.488 159.268C249.488 157.872 248.684 157.174 247.076 157.174H242.761V170.68H240.805ZM264.506 155.556V157.142H256.574V162.219H264.136V163.805H256.574V170.68H254.617V155.556H264.506ZM268.377 163.076C268.377 167.158 270.221 169.199 273.908 169.199C277.518 169.199 279.323 167.158 279.323 163.076C279.323 159.05 277.518 157.037 273.908 157.037C270.221 157.037 268.377 159.05 268.377 163.076ZM266.315 163.139C266.315 158.013 268.846 155.45 273.908 155.45C278.893 155.45 281.386 158.013 281.386 163.139C281.386 168.237 278.893 170.786 273.908 170.786C268.846 170.786 266.315 168.237 266.315 163.139ZM284.463 170.68V155.556H290.915C293.791 155.556 295.23 156.765 295.23 159.184C295.23 161.151 293.823 162.607 291.01 163.552L296.203 170.68H293.622L288.81 163.879V162.6C291.701 162.141 293.146 161.031 293.146 159.268C293.146 157.872 292.342 157.174 290.735 157.174H286.42V170.68H284.463ZM298.276 170.68V155.556H300.761L306.314 168.173L311.76 155.556H314.14V170.68H312.395V158.274L307.022 170.68H305.478L300.021 158.274V170.68H298.276ZM318.233 170.68H316.202L322.622 155.556H324.79L331.242 170.68H329.074L327.117 165.921H322.114L322.654 164.334H326.461L323.637 157.481L318.233 170.68ZM333.304 170.68V155.556H335.261L344.515 167.74V155.556H346.366V170.68H344.409L335.155 158.39V170.68H333.304ZM361.394 170.151C360.09 170.574 358.68 170.786 357.164 170.786C351.876 170.786 349.232 168.159 349.232 162.906C349.232 157.936 351.876 155.45 357.164 155.45C358.68 155.45 360.09 155.662 361.394 156.085V157.777C360.09 157.283 358.75 157.037 357.375 157.037C353.251 157.037 351.188 158.993 351.188 162.906C351.188 167.102 353.251 169.199 357.375 169.199C358.75 169.199 360.09 168.952 361.394 168.459V170.151ZM374.519 155.556V157.142H366.587V162.219H374.149V163.805H366.587V169.094H374.678V170.68H364.631V155.556H374.519ZM392.816 155.556V157.142H384.884V162.219H392.446V163.805H384.884V169.094H392.975V170.68H382.927V155.556H392.816ZM401.013 170.151V168.353C402.599 168.917 404.312 169.199 406.153 169.199C408.754 169.199 410.055 168.247 410.055 166.344C410.055 164.722 409.096 163.911 407.179 163.911H405.233C402.067 163.911 400.484 162.536 400.484 159.786C400.484 156.896 402.511 155.45 406.565 155.45C408.328 155.45 409.967 155.662 411.483 156.085V157.883C409.967 157.319 408.328 157.037 406.565 157.037C403.815 157.037 402.44 157.953 402.44 159.786C402.44 161.408 403.371 162.219 405.233 162.219H407.179C410.401 162.219 412.012 163.594 412.012 166.344C412.012 169.305 410.059 170.786 406.153 170.786C404.312 170.786 402.599 170.574 401.013 170.151ZM415.365 170.68H413.334L419.754 155.556H421.922L428.373 170.68H426.205L424.249 165.921H419.246L419.785 164.334H423.593L420.769 157.481L415.365 170.68ZM430.33 164.842V155.556H432.286V164.842C432.286 167.747 433.732 169.199 436.623 169.199C439.513 169.199 440.959 167.747 440.959 164.842V155.556H442.915V164.842C442.915 168.804 440.818 170.786 436.623 170.786C432.427 170.786 430.33 168.804 430.33 164.842ZM436.94 151.537H439.468L436.94 154.065H435.205L436.94 151.537ZM451.905 169.094C455.607 169.094 457.458 166.964 457.458 162.705C457.458 158.997 455.607 157.142 451.905 157.142H448.362V169.094H451.905ZM446.406 170.68V155.556H451.905C456.911 155.556 459.414 157.939 459.414 162.705C459.414 168.022 456.911 170.68 451.905 170.68H446.406ZM472.159 155.556V157.142H464.226V162.219H471.788V163.805H464.226V169.094H472.317V170.68H462.27V155.556H472.159Z" fill="white"/>
</svg>
